<?xml version="1.0" standalone="no"?>
<!DOCTYPE svg PUBLIC "-//W3C//DTD SVG 20010904//EN"
 "http://www.w3.org/TR/2001/REC-SVG-20010904/DTD/svg10.dtd">
<svg version="1.0" xmlns="http://www.w3.org/2000/svg"
 width="500.000000pt" height="500.000000pt" viewBox="0 0 500.000000 500.000000"
 preserveAspectRatio="xMidYMid meet">
<metadata>
Created by potrace 1.14, written by Peter Selinger 2001-2017
</metadata>
<g transform="translate(0.000000,500.000000) scale(0.100000,-0.100000)"
fill="#000000" stroke="none">
<path d="M0 2500 l0 -2500 2500 0 2500 0 0 2500 0 2500 -2500 0 -2500 0 0
-2500z m1041 930 c13 8 19 7 19 0 0 -6 7 -4 16 4 19 20 33 20 40 1 4 -8 10
-15 16 -15 5 0 7 3 5 8 -3 4 8 8 24 9 19 1 27 -2 23 -8 -10 -17 39 -6 53 11
11 13 14 13 22 1 5 -7 14 -10 20 -7 6 4 11 3 11 -3 0 -7 10 -6 30 1 17 5 38 7
48 3 9 -4 54 -8 99 -9 70 -1 80 1 70 14 -8 10 -3 9 17 -4 16 -10 25 -13 22 -7
-5 7 2 11 18 11 14 0 26 -5 26 -11 0 -7 7 -8 18 -4 26 11 72 13 78 3 3 -4 10
-8 15 -8 6 0 8 4 5 8 -5 9 41 8 50 -1 4 -3 15 -2 25 4 11 5 19 7 19 3 0 -3 6
-1 14 5 11 9 15 8 20 -5 4 -11 13 -14 30 -10 22 5 28 -3 84 -127 156 -339 213
-562 252 -992 16 -175 13 -602 -5 -785 -25 -259 -78 -568 -107 -624 -12 -23
-248 -137 -298 -143 -36 -5 -38 -4 -107 83 -266 336 -492 690 -694 1089 -127
252 -199 428 -254 617 -72 252 -103 448 -112 700 -6 166 -5 178 12 185 11 4
20 2 23 -5 2 -6 10 -8 18 -5 7 3 12 9 9 13 -7 12 37 9 53 -3 8 -6 17 -5 26 2
11 9 20 10 35 1 16 -8 21 -8 21 1 0 8 4 8 15 -1 8 -7 15 -9 15 -4 0 10 73 10
89 -1 6 -3 14 1 17 9 5 14 8 14 21 1 11 -11 19 -12 34 -5z m359 16 c0 -3 -4
-8 -10 -11 -5 -3 -10 -1 -10 4 0 6 5 11 10 11 6 0 10 -2 10 -4z m2464 -558
c-5 -7 -2 -9 8 -5 9 3 20 1 26 -5 8 -8 16 -8 27 2 12 10 18 10 32 -1 11 -10
14 -10 9 -1 -4 7 -2 12 8 12 8 0 17 -4 20 -9 6 -9 69 -6 85 4 5 3 12 1 16 -5
4 -6 13 -7 23 -1 9 5 39 5 65 1 27 -4 50 -3 53 2 4 6 10 6 16 0 6 -6 16 -8 23
-6 32 13 69 -219 69 -436 0 -312 -65 -548 -224 -818 -78 -131 -196 -244 -319
-305 -79 -39 -90 -42 -170 -42 -70 0 -95 4 -136 24 -67 33 -199 168 -252 259
-38 63 -154 322 -223 495 -12 32 -24 56 -26 54 -3 -2 9 -55 25 -118 52 -207
142 -391 269 -549 34 -43 62 -83 62 -90 0 -25 -358 -438 -493 -569 l-46 -44
-118 36 c-65 20 -149 49 -188 65 l-70 29 -12 78 c-45 296 -66 826 -44 1136 19
266 85 730 112 780 4 9 22 16 39 17 16 0 39 4 50 7 15 5 20 2 21 -12 0 -16 1
-16 9 2 5 11 9 14 9 8 1 -7 6 -13 12 -13 5 0 7 5 4 10 -3 6 1 10 9 10 9 0 16
-3 16 -7 0 -10 81 -10 97 0 6 4 14 3 17 -2 3 -5 21 -6 40 -1 19 4 40 4 46 0 7
-4 25 -4 41 0 15 5 30 6 33 2 11 -10 66 -9 66 2 0 6 4 6 11 -1 6 -6 18 -9 27
-6 10 4 13 2 8 -5 -4 -7 -1 -12 8 -12 9 0 16 5 16 11 0 6 9 8 20 4 12 -4 20
-2 20 5 0 6 5 8 10 5 6 -4 8 -12 4 -18 -3 -7 1 -3 10 7 13 17 18 17 33 5 9 -8
14 -9 10 -3 -4 8 9 11 43 10 28 0 50 -4 50 -7 0 -3 11 -4 25 -1 14 2 32 -1 40
-8 12 -10 16 -9 20 2 6 15 43 17 64 3 6 -3 11 -1 11 6 0 10 3 10 11 2 8 -8 20
-8 35 -3 14 6 26 6 29 0 3 -6 16 -5 31 0 19 8 23 7 18 -3 -5 -8 -2 -8 9 2 14
11 17 11 17 0 0 -9 3 -10 8 -4 9 13 42 15 42 3 0 -6 8 -4 17 3 15 12 16 12 10
-5 -7 -16 -5 -17 9 -6 13 12 17 11 24 0 7 -12 10 -11 16 3 3 9 11 14 16 11 17
-11 98 -10 98 1 0 5 4 4 9 -3 6 -10 10 -10 21 3 15 18 24 20 14 3z"/>
<path d="M2943 2315 c11 -101 26 -168 41 -184 15 -14 16 -14 16 2 0 9 -6 36
-14 59 -8 24 -19 70 -25 102 -14 74 -25 88 -18 21z"/>
</g>
</svg>
