<svg width="1798" height="393" viewBox="0 0 1798 393" fill="none" xmlns="http://www.w3.org/2000/svg">
<path opacity="0.989" fill-rule="evenodd" clip-rule="evenodd" d="M44.6739 0C61.6633 1.82082 76.6824 8.21779 89.7312 19.1911C129.363 60.0039 156.343 108.121 170.668 163.541C182.715 226.899 182.715 290.313 170.668 353.784C169.459 361.774 167.514 369.562 164.827 377.147C155.068 382.303 145.055 387.031 134.789 391.331C131.853 392.663 129.071 392.384 126.445 390.497C88.1944 343.53 56.2092 292.355 30.4892 236.968C2.99801 176.126 -5.90215 112.712 3.78852 46.7261C7.88957 22.3483 21.5179 6.77278 44.6739 0Z" fill="url(#paint0_linear_1791_87)"/>
<path opacity="0.986" fill-rule="evenodd" clip-rule="evenodd" d="M263.285 238.637C268.201 270.382 281.273 298.196 302.502 322.076C303.615 323.745 303.615 325.414 302.502 327.083C283.99 350.05 264.243 372.023 243.26 393C228.758 389.649 214.573 384.921 200.705 378.815C187.418 294.505 191.312 211.065 212.387 128.497C216.542 114.338 223.496 101.823 233.247 90.949C242.494 83.5095 253.062 79.8938 264.954 80.1019C302.759 82.7835 338.359 93.0744 371.756 110.974C395.228 123.884 408.857 143.633 412.642 170.217C420.75 219.531 410.738 264.588 382.603 305.389C344.468 347.397 312.204 342.946 285.814 292.038C277.77 274.256 270.261 256.455 263.285 238.637ZM259.947 225.287C257.556 221.258 256.722 216.808 257.444 211.936C259.245 216.213 260.079 220.662 259.947 225.287ZM259.947 225.287C262.517 229.188 263.629 233.639 263.285 238.637C260.41 234.832 259.298 230.381 259.947 225.287Z" fill="url(#paint1_linear_1791_87)"/>
<path d="M519.109 211.469V51.4688H628.328V82.875H557.781V115.688H621.375V147.172H557.781V211.469H519.109Z" fill="white"/>
<path d="M645.438 211.469V91.4688H682.547V113.344H683.797C685.984 105.427 689.552 99.5417 694.5 95.6875C699.448 91.7813 705.203 89.8281 711.766 89.8281C713.536 89.8281 715.359 89.9583 717.234 90.2188C719.109 90.4271 720.854 90.7656 722.469 91.2344V124.438C720.646 123.813 718.25 123.318 715.281 122.953C712.365 122.589 709.76 122.406 707.469 122.406C702.938 122.406 698.849 123.422 695.203 125.453C691.609 127.432 688.771 130.219 686.688 133.813C684.656 137.354 683.641 141.521 683.641 146.313V211.469H645.438Z" fill="white"/>
<path d="M738.035 211.469V91.4688H776.238V211.469H738.035ZM757.176 77.4844C751.811 77.4844 747.202 75.7136 743.348 72.1719C739.493 68.5781 737.566 64.2552 737.566 59.2031C737.566 54.2031 739.493 49.9323 743.348 46.3906C747.202 42.7969 751.811 41 757.176 41C762.592 41 767.202 42.7969 771.004 46.3906C774.858 49.9323 776.785 54.2031 776.785 59.2031C776.785 64.2552 774.858 68.5781 771.004 72.1719C767.202 75.7136 762.592 77.4844 757.176 77.4844Z" fill="white"/>
<path d="M856.648 213.734C844.096 213.734 833.263 211.26 824.148 206.312C815.086 201.312 808.107 194.203 803.211 184.984C798.367 175.714 795.945 164.698 795.945 151.938C795.945 139.542 798.393 128.708 803.289 119.438C808.185 110.115 815.086 102.875 823.992 97.7188C832.898 92.5104 843.393 89.9063 855.477 89.9063C864.018 89.9063 871.831 91.2344 878.914 93.8906C885.997 96.5469 892.117 100.479 897.273 105.688C902.43 110.896 906.44 117.328 909.305 124.984C912.169 132.589 913.602 141.313 913.602 151.156V160.688H809.305V138.5H878.055C878.003 134.438 877.039 130.818 875.164 127.641C873.289 124.464 870.711 121.99 867.43 120.219C864.201 118.396 860.477 117.484 856.258 117.484C851.987 117.484 848.159 118.448 844.773 120.375C841.388 122.25 838.706 124.828 836.727 128.109C834.747 131.339 833.706 135.01 833.602 139.125V161.703C833.602 166.599 834.565 170.896 836.492 174.594C838.419 178.24 841.154 181.078 844.695 183.109C848.237 185.141 852.456 186.156 857.352 186.156C860.737 186.156 863.81 185.688 866.57 184.75C869.331 183.813 871.701 182.432 873.68 180.609C875.659 178.786 877.143 176.547 878.133 173.891L913.211 174.906C911.753 182.771 908.549 189.62 903.602 195.453C898.706 201.234 892.273 205.74 884.305 208.969C876.336 212.146 867.117 213.734 856.648 213.734Z" fill="white"/>
<path d="M971.316 143.031V211.469H933.113V91.4688H969.441V113.5H970.77C973.426 106.156 977.957 100.401 984.363 96.2344C990.77 92.0156 998.4 89.9063 1007.25 89.9063C1015.69 89.9063 1023.01 91.8073 1029.21 95.6094C1035.46 99.3594 1040.3 104.62 1043.74 111.391C1047.23 118.109 1048.95 125.974 1048.89 134.984V211.469H1010.69V142.484C1010.74 135.818 1009.05 130.609 1005.61 126.859C1002.23 123.109 997.514 121.234 991.473 121.234C987.462 121.234 983.921 122.12 980.848 123.891C977.827 125.609 975.483 128.083 973.816 131.313C972.202 134.542 971.368 138.448 971.316 143.031Z" fill="white"/>
<path d="M1116.38 213.188C1107.52 213.188 1099.47 210.896 1092.23 206.312C1084.99 201.729 1079.21 194.854 1074.89 185.688C1070.57 176.521 1068.41 165.141 1068.41 151.547C1068.41 137.432 1070.65 125.818 1075.12 116.703C1079.6 107.589 1085.46 100.844 1092.7 96.4688C1099.99 92.0938 1107.83 89.9063 1116.22 89.9063C1122.52 89.9063 1127.91 91 1132.39 93.1875C1136.87 95.3229 1140.57 98.0833 1143.48 101.469C1146.4 104.854 1148.61 108.37 1150.12 112.016H1150.91V51.4688H1189.11V211.469H1151.3V192.016H1150.12C1148.51 195.714 1146.22 199.177 1143.25 202.406C1140.28 205.635 1136.56 208.24 1132.08 210.219C1127.65 212.198 1122.42 213.188 1116.38 213.188ZM1129.66 183.422C1134.29 183.422 1138.25 182.12 1141.53 179.516C1144.81 176.859 1147.34 173.135 1149.11 168.344C1150.88 163.552 1151.77 157.927 1151.77 151.469C1151.77 144.906 1150.88 139.255 1149.11 134.516C1147.39 129.776 1144.86 126.13 1141.53 123.578C1138.25 121.026 1134.29 119.75 1129.66 119.75C1124.92 119.75 1120.91 121.052 1117.62 123.656C1114.34 126.26 1111.84 129.932 1110.12 134.672C1108.46 139.411 1107.62 145.01 1107.62 151.469C1107.62 157.927 1108.48 163.552 1110.2 168.344C1111.92 173.135 1114.4 176.859 1117.62 179.516C1120.91 182.12 1124.92 183.422 1129.66 183.422Z" fill="white"/>
<path d="M1299.75 99.4375C1299.23 93.7083 1296.92 89.2552 1292.8 86.0781C1288.74 82.849 1282.93 81.2344 1275.38 81.2344C1270.38 81.2344 1266.21 81.8854 1262.88 83.1875C1259.55 84.4896 1257.05 86.2865 1255.38 88.5781C1253.71 90.8177 1252.85 93.3958 1252.8 96.3125C1252.7 98.7083 1253.17 100.818 1254.21 102.641C1255.3 104.464 1256.86 106.078 1258.89 107.484C1260.98 108.839 1263.48 110.036 1266.39 111.078C1269.31 112.12 1272.59 113.031 1276.24 113.813L1289.99 116.938C1297.9 118.656 1304.88 120.948 1310.93 123.813C1317.02 126.677 1322.12 130.089 1326.24 134.047C1330.4 138.005 1333.56 142.563 1335.69 147.719C1337.83 152.875 1338.92 158.656 1338.97 165.063C1338.92 175.167 1336.37 183.839 1331.32 191.078C1326.26 198.318 1319 203.865 1309.52 207.719C1300.09 211.573 1288.71 213.5 1275.38 213.5C1261.99 213.5 1250.33 211.495 1240.38 207.484C1230.43 203.474 1222.7 197.38 1217.18 189.203C1211.65 181.026 1208.82 170.688 1208.66 158.188H1245.69C1246 163.344 1247.38 167.641 1249.83 171.078C1252.28 174.516 1255.64 177.12 1259.91 178.891C1264.23 180.661 1269.23 181.547 1274.91 181.547C1280.12 181.547 1284.55 180.844 1288.19 179.438C1291.89 178.031 1294.73 176.078 1296.71 173.578C1298.69 171.078 1299.7 168.214 1299.75 164.984C1299.7 161.964 1298.76 159.385 1296.94 157.25C1295.12 155.063 1292.31 153.188 1288.5 151.625C1284.75 150.01 1279.96 148.526 1274.13 147.172L1257.41 143.266C1243.56 140.089 1232.64 134.958 1224.68 127.875C1216.71 120.74 1212.75 111.104 1212.8 98.9688C1212.75 89.0729 1215.4 80.401 1220.77 72.9531C1226.13 65.5052 1233.56 59.6979 1243.04 55.5313C1252.51 51.3646 1263.32 49.2812 1275.46 49.2812C1287.85 49.2812 1298.61 51.3906 1307.72 55.6094C1316.89 59.776 1324 65.6354 1329.05 73.1875C1334.1 80.7396 1336.68 89.4896 1336.79 99.4375H1299.75Z" fill="white"/>
<path d="M1380.93 211.469L1349.68 91.4688H1388.04L1404.21 168.344H1405.22L1422.57 91.4688H1459.99L1477.8 167.797H1478.82L1494.52 91.4688H1532.88L1501.55 211.469H1460.69L1441.94 141.547H1440.61L1421.86 211.469H1380.93Z" fill="white"/>
<path d="M1582.04 213.5C1574.38 213.5 1567.59 212.224 1561.65 209.672C1555.76 207.068 1551.1 203.161 1547.66 197.953C1544.28 192.693 1542.59 186.104 1542.59 178.188C1542.59 171.521 1543.76 165.896 1546.1 161.313C1548.45 156.729 1551.67 153.005 1555.79 150.141C1559.9 147.276 1564.64 145.115 1570.01 143.656C1575.37 142.146 1581.1 141.13 1587.2 140.609C1594.02 139.984 1599.51 139.333 1603.68 138.656C1607.85 137.927 1610.87 136.911 1612.74 135.609C1614.67 134.255 1615.63 132.354 1615.63 129.906V129.516C1615.63 125.505 1614.25 122.406 1611.49 120.219C1608.73 118.031 1605.01 116.938 1600.32 116.938C1595.27 116.938 1591.21 118.031 1588.13 120.219C1585.06 122.406 1583.11 125.427 1582.27 129.281L1547.04 128.031C1548.08 120.74 1550.76 114.229 1555.09 108.5C1559.46 102.719 1565.45 98.1875 1573.05 94.9063C1580.71 91.5729 1589.9 89.9063 1600.63 89.9063C1608.29 89.9063 1615.35 90.8177 1621.8 92.6406C1628.26 94.4115 1633.89 97.0156 1638.68 100.453C1643.47 103.839 1647.17 108.005 1649.77 112.953C1652.43 117.901 1653.76 123.552 1653.76 129.906V211.469H1617.82V194.75H1616.88C1614.75 198.812 1612.01 202.25 1608.68 205.062C1605.4 207.875 1601.52 209.984 1597.04 211.391C1592.61 212.797 1587.61 213.5 1582.04 213.5ZM1593.84 188.5C1597.95 188.5 1601.65 187.667 1604.93 186C1608.26 184.333 1610.92 182.042 1612.9 179.125C1614.88 176.156 1615.87 172.719 1615.87 168.813V157.406C1614.77 157.979 1613.45 158.5 1611.88 158.969C1610.37 159.438 1608.71 159.88 1606.88 160.297C1605.06 160.714 1603.18 161.078 1601.26 161.391C1599.33 161.703 1597.48 161.99 1595.71 162.25C1592.12 162.823 1589.04 163.708 1586.49 164.906C1583.99 166.104 1582.07 167.667 1580.71 169.594C1579.41 171.469 1578.76 173.708 1578.76 176.312C1578.76 180.271 1580.16 183.292 1582.98 185.375C1585.84 187.458 1589.46 188.5 1593.84 188.5Z" fill="white"/>
<path d="M1677.12 256.469V91.4688H1714.93V112.016H1716.1C1717.66 108.37 1719.88 104.854 1722.74 101.469C1725.66 98.0833 1729.36 95.3229 1733.84 93.1875C1738.37 91 1743.78 89.9063 1750.09 89.9063C1758.42 89.9063 1766.21 92.0938 1773.45 96.4688C1780.74 100.844 1786.62 107.589 1791.1 116.703C1795.58 125.818 1797.82 137.432 1797.82 151.547C1797.82 165.141 1795.66 176.521 1791.34 185.688C1787.07 194.854 1781.28 201.729 1773.99 206.312C1766.75 210.896 1758.71 213.188 1749.85 213.188C1743.81 213.188 1738.58 212.198 1734.15 210.219C1729.72 208.24 1726 205.635 1722.98 202.406C1720.01 199.177 1717.72 195.714 1716.1 192.016H1715.32V256.469H1677.12ZM1714.54 151.469C1714.54 157.927 1715.4 163.552 1717.12 168.344C1718.89 173.135 1721.41 176.859 1724.7 179.516C1728.03 182.12 1732.01 183.422 1736.65 183.422C1741.34 183.422 1745.32 182.12 1748.6 179.516C1751.88 176.859 1754.36 173.135 1756.02 168.344C1757.74 163.552 1758.6 157.927 1758.6 151.469C1758.6 145.01 1757.74 139.411 1756.02 134.672C1754.36 129.932 1751.88 126.26 1748.6 123.656C1745.37 121.052 1741.39 119.75 1736.65 119.75C1731.96 119.75 1727.98 121.026 1724.7 123.578C1721.41 126.13 1718.89 129.776 1717.12 134.516C1715.4 139.255 1714.54 144.906 1714.54 151.469Z" fill="white"/>
<path d="M752.846 257.346C752.753 258.755 752.631 260.153 752.496 261.546V261.548C751.663 270.078 750.145 278.406 747.999 286.477C745.773 294.864 742.87 302.972 739.347 310.746L733.576 299.247L730.525 293.166L728.567 289.263C728.673 288.955 728.774 288.642 728.869 288.326C730.7 282.596 732.162 276.703 733.234 270.675C734.016 266.3 734.592 261.856 734.95 257.346H752.846Z" fill="url(#paint2_linear_1791_87)"/>
<path d="M749.675 327.734L748.77 329.53V329.533L747.998 331.074L744.22 338.604L743.697 339.652L743.554 339.933L743.185 339.203L738.147 329.158L737.436 327.734L734.149 321.178L730.53 313.967L728.365 309.65L724.091 301.131L713.096 279.218L702.125 257.346L698.676 250.469L686.734 257.346L683.495 259.216L666.377 269.094L648.882 279.194V336.42L666.377 346.521L682.086 355.589L692.635 361.678L698.443 365.029C698.443 365.029 710.371 356.178 723.228 338.41L728.015 347.956L728.365 348.654V348.656L733.772 359.431V359.434C737.813 367.481 749.301 367.481 753.342 359.434V359.431L753.485 359.152L758.56 349.033L769.25 327.728H749.675V327.734ZM708.928 327.734C704.924 333.252 700.523 338.46 695.768 343.321L691.133 340.644L668.772 327.734L666.374 326.349L666.35 326.338V289.284L666.374 289.274L691.335 274.862L714.059 320.156C712.435 322.74 710.721 325.269 708.928 327.734Z" fill="url(#paint3_linear_1791_87)"/>
<path d="M723.226 338.415C710.369 356.183 698.441 365.034 698.441 365.034L692.633 361.683L691.134 340.647L695.769 343.324C700.521 338.46 704.925 333.252 708.928 327.736C710.722 325.269 712.436 322.743 714.062 320.156L723.226 338.415Z" fill="url(#paint4_linear_1791_87)"/>
<path d="M769.248 327.734L758.558 349.038C756.404 353.331 750.275 353.331 748.121 349.036L743.552 339.93L743.696 339.649L744.218 338.601L747.996 331.071L748.768 329.53V329.527L749.673 327.731H769.248V327.734Z" fill="url(#paint5_linear_1791_87)"/>
<path d="M695.768 343.323L648.882 336.423V279.197L691.338 274.859L666.374 289.271L666.353 289.282V326.338L666.374 326.349L668.772 327.734L691.133 340.644L695.768 343.323Z" fill="url(#paint6_linear_1791_87)"/>
<path d="M800.572 344.551L824.139 276.227H847.474L871.089 344.551H852.56L849.105 332.324H822.645L819.098 344.551H800.572ZM826.659 319.023H845.187L838.233 296.48C838.014 295.798 837.719 294.691 837.346 293.166C836.972 291.641 836.489 289.683 835.899 287.285C835.495 288.964 835.099 290.568 834.708 292.093C834.318 293.618 833.922 295.079 833.517 296.48L826.659 319.023Z" fill="white"/>
<path d="M876.923 344.55V272.213H893.584V344.55H876.923Z" fill="white"/>
<path d="M906.372 365.366V297.416H921.679V305.35C923.794 302.176 926.176 299.811 928.819 298.255C931.462 296.699 934.403 295.921 937.641 295.921C944.267 295.921 949.541 298.185 953.462 302.713C957.383 307.24 959.343 313.377 959.343 321.123C959.343 328.653 957.391 334.743 953.487 339.394C949.583 344.045 944.488 346.371 938.203 346.371C934.22 346.371 930.976 345.64 928.473 344.177C925.968 342.714 923.735 340.304 921.778 336.942C921.932 337.874 922.05 339.012 922.129 340.349C922.207 341.686 922.247 343.334 922.247 345.295V365.363H906.372V365.366ZM921.12 321.123C921.12 324.794 922.078 327.687 923.991 329.805C925.904 331.92 928.541 332.979 931.9 332.979C935.259 332.979 937.913 331.923 939.857 329.805C941.801 327.69 942.772 324.797 942.772 321.123C942.772 317.453 941.809 314.56 939.879 312.442C937.95 310.327 935.29 309.268 931.9 309.268C928.541 309.268 925.904 310.327 923.991 312.442C922.075 314.56 921.12 317.453 921.12 321.123Z" fill="white"/>
<path d="M969.376 344.55V272.213H985.711V297.601C985.711 299.28 985.663 300.836 985.571 302.269C985.478 303.701 985.338 304.99 985.152 306.142C987.236 302.626 989.694 300.044 992.525 298.396C995.356 296.747 998.732 295.921 1002.65 295.921C1005.7 295.921 1008.42 296.413 1010.8 297.39C1013.17 298.37 1015.11 299.778 1016.61 301.614C1017.85 303.201 1018.74 305.131 1019.27 307.4C1019.79 309.672 1020.06 313.063 1020.06 317.573V344.548H1003.4V319.301C1003.4 315.537 1002.79 312.799 1001.56 311.088C1000.33 309.378 998.361 308.521 995.654 308.521C992.199 308.521 989.68 309.796 988.093 312.349C986.506 314.899 985.714 319.039 985.714 324.763V344.55H969.376Z" fill="white"/>
<path d="M1082.32 297.416V344.551H1067.05V336.897C1064.87 340.164 1062.42 342.559 1059.7 344.084C1056.98 345.61 1053.78 346.371 1050.11 346.371C1043.83 346.371 1038.8 344.076 1035.04 339.487C1031.27 334.897 1029.39 328.746 1029.39 321.028C1029.39 313.344 1031.35 307.238 1035.29 302.71C1039.23 298.182 1044.52 295.919 1051.18 295.919C1054.73 295.919 1057.79 296.674 1060.35 298.182C1062.92 299.691 1065.12 302.016 1066.96 305.159V297.413H1082.32V297.416ZM1067.71 320.938C1067.71 317.267 1066.73 314.358 1064.77 312.212C1062.81 310.066 1060.13 308.99 1056.74 308.99C1053.35 308.99 1050.68 310.057 1048.73 312.186C1046.79 314.318 1045.82 317.234 1045.82 320.938C1045.82 324.609 1046.8 327.502 1048.76 329.62C1050.72 331.735 1053.38 332.794 1056.74 332.794C1060.13 332.794 1062.81 331.738 1064.77 329.62C1066.73 327.502 1067.71 324.609 1067.71 320.938Z" fill="white"/>
<path d="M1145.65 272.214V344.551H1130.34V336.897C1128.22 340.071 1125.84 342.444 1123.2 344.014C1120.55 345.584 1117.61 346.371 1114.38 346.371C1107.75 346.371 1102.48 344.084 1098.56 339.509C1094.63 334.934 1092.67 328.774 1092.67 321.028C1092.67 313.529 1094.63 307.471 1098.53 302.85C1102.43 298.23 1107.53 295.919 1113.81 295.919C1117.8 295.919 1121.04 296.635 1123.55 298.064C1126.05 299.497 1128.28 301.89 1130.24 305.252C1130.05 304.131 1129.92 302.864 1129.82 301.449C1129.73 300.033 1129.68 298.503 1129.68 296.851V272.211H1145.65V272.214ZM1130.9 321.031C1130.9 317.36 1129.93 314.467 1127.98 312.349C1126.04 310.234 1123.38 309.176 1120.02 309.176C1116.67 309.176 1114.02 310.234 1112.09 312.349C1110.16 314.464 1109.2 317.36 1109.2 321.031C1109.2 324.733 1110.15 327.634 1112.07 329.735C1113.98 331.836 1116.63 332.886 1120.02 332.886C1123.38 332.886 1126.04 331.83 1127.98 329.712C1129.93 327.595 1130.9 324.702 1130.9 321.031Z" fill="white"/>
<path d="M1207.95 321.123C1207.95 324.516 1207.29 327.735 1205.97 330.785C1204.64 333.835 1202.72 336.571 1200.2 338.998C1197.65 341.424 1194.8 343.261 1191.64 344.506C1188.48 345.75 1185.13 346.373 1181.58 346.373C1177.97 346.373 1174.59 345.75 1171.43 344.506C1168.27 343.261 1165.45 341.424 1162.96 338.998C1160.47 336.633 1158.57 333.92 1157.27 330.853C1155.96 327.788 1155.31 324.544 1155.31 321.123C1155.31 317.669 1155.95 314.419 1157.24 311.369C1158.53 308.322 1160.44 305.583 1162.96 303.156C1165.42 300.761 1168.23 298.957 1171.38 297.744C1174.54 296.531 1177.94 295.924 1181.58 295.924C1185.22 295.924 1188.61 296.531 1191.75 297.744C1194.9 298.957 1197.71 300.761 1200.2 303.156C1202.75 305.614 1204.68 308.369 1205.99 311.417C1207.3 314.467 1207.95 317.702 1207.95 321.123ZM1191.43 321.123C1191.43 317.607 1190.54 314.84 1188.77 312.815C1187 310.793 1184.6 309.782 1181.58 309.782C1178.53 309.782 1176.13 310.793 1174.37 312.815C1172.61 314.838 1171.73 317.607 1171.73 321.123C1171.73 324.64 1172.61 327.401 1174.35 329.406C1176.09 331.412 1178.5 332.417 1181.58 332.417C1184.63 332.417 1187.03 331.414 1188.79 329.406C1190.55 327.401 1191.43 324.64 1191.43 321.123Z" fill="white"/>
<path d="M1217.61 344.551V297.416H1233.29V308.524C1234.91 304.479 1237.12 301.446 1239.92 299.424C1242.72 297.402 1246.11 296.39 1250.09 296.39C1250.74 296.39 1251.4 296.413 1252.07 296.461C1252.74 296.508 1253.42 296.579 1254.1 296.671L1252.52 311.793C1251.52 311.45 1250.54 311.203 1249.58 311.046C1248.61 310.891 1247.68 310.813 1246.78 310.813C1242.73 310.813 1239.61 312.049 1237.42 314.523C1235.22 316.998 1234.13 320.506 1234.13 325.047V344.556H1217.61V344.551Z" fill="white"/>
<path d="M519 336.293V278.413H532.78V300.316H533.062C533.626 298.997 534.424 297.725 535.458 296.5C536.51 295.276 537.844 294.277 539.459 293.504C541.094 292.713 543.048 292.317 545.321 292.317C548.327 292.317 551.136 293.109 553.747 294.691C556.377 296.274 558.5 298.714 560.116 302.011C561.732 305.308 562.539 309.51 562.539 314.616C562.539 319.534 561.76 323.65 560.2 326.966C558.66 330.282 556.574 332.769 553.944 334.427C551.333 336.086 548.43 336.915 545.236 336.915C543.057 336.915 541.169 336.557 539.572 335.841C537.975 335.125 536.632 334.183 535.542 333.014C534.471 331.846 533.645 330.593 533.062 329.256H532.64V336.293H519ZM532.499 314.588C532.499 316.924 532.809 318.959 533.429 320.692C534.067 322.426 534.979 323.773 536.162 324.734C537.364 325.676 538.802 326.147 540.474 326.147C542.165 326.147 543.602 325.676 544.785 324.734C545.969 323.773 546.861 322.426 547.463 320.692C548.083 318.959 548.393 316.924 548.393 314.588C548.393 312.251 548.083 310.226 547.463 308.511C546.861 306.797 545.969 305.469 544.785 304.527C543.621 303.584 542.183 303.113 540.474 303.113C538.783 303.113 537.346 303.575 536.162 304.498C534.979 305.421 534.067 306.74 533.429 308.455C532.809 310.169 532.499 312.214 532.499 314.588Z" fill="white"/>
<path d="M576.792 352.572C575.139 352.572 573.579 352.44 572.114 352.176C570.648 351.931 569.39 351.601 568.338 351.187L571.381 341.154C572.734 341.606 573.955 341.87 575.045 341.945C576.153 342.02 577.102 341.841 577.891 341.408C578.699 340.994 579.319 340.249 579.751 339.175L580.286 337.875L564.899 292.883H579.328L587.303 323.858H587.754L595.842 292.883H610.355L594.038 340.447C593.249 342.821 592.132 344.913 590.685 346.721C589.257 348.549 587.407 349.981 585.133 351.017C582.879 352.053 580.098 352.572 576.792 352.572Z" fill="white"/>
<defs>
<linearGradient id="paint0_linear_1791_87" x1="89.8514" y1="0" x2="89.8514" y2="392.157" gradientUnits="userSpaceOnUse">
<stop stop-color="#8926DD"/>
<stop offset="1" stop-color="#D490F2"/>
</linearGradient>
<linearGradient id="paint1_linear_1791_87" x1="304.181" y1="80.0934" x2="304.181" y2="393" gradientUnits="userSpaceOnUse">
<stop stop-color="#8926DD"/>
<stop offset="1" stop-color="#D490F2"/>
</linearGradient>
<linearGradient id="paint2_linear_1791_87" x1="747.75" y1="262.313" x2="724.424" y2="310.131" gradientUnits="userSpaceOnUse">
<stop stop-color="#D38FF1"/>
<stop offset="1" stop-color="#780ED8"/>
</linearGradient>
<linearGradient id="paint3_linear_1791_87" x1="709.066" y1="258.389" x2="709.066" y2="376.556" gradientUnits="userSpaceOnUse">
<stop stop-color="#D38FF1"/>
<stop offset="1" stop-color="#780ED8"/>
</linearGradient>
<linearGradient id="paint4_linear_1791_87" x1="697.207" y1="349.146" x2="733.168" y2="323.099" gradientUnits="userSpaceOnUse">
<stop stop-opacity="0"/>
<stop offset="1"/>
</linearGradient>
<linearGradient id="paint5_linear_1791_87" x1="756.848" y1="332.072" x2="748.638" y2="364.363" gradientUnits="userSpaceOnUse">
<stop stop-opacity="0"/>
<stop offset="1"/>
</linearGradient>
<linearGradient id="paint6_linear_1791_87" x1="646.145" y1="309.091" x2="705.275" y2="309.091" gradientUnits="userSpaceOnUse">
<stop stop-opacity="0"/>
<stop offset="1"/>
</linearGradient>
</defs>
</svg>
